#!OML:ASF X:\für Bonn\!DataBase\2005_08_11_Bastian_Final\c3d\Bastian.ASF
:FULLY-SPECIFIED
:DEGREES
2155
root 2.38473 17.4257 7.36686 173.502 28.2208 -175.587
lowerback 19.0405 -5.10115 -3.85755
upperback 9.29138 -6.07222 0.868622
thorax -0.057861 -2.67198 4.18214
lowerneck -0.1783 4.36675 1.46447
upperneck -7.05834 6.57916 5.8264
head -2.36991 3.23602 1.46373
rclavicle -2.52457e-014 2.38542e-015
rhumerus -223.295 -167.981 108.909
rradius 90.6886
rwrist -171.418
rhand -12.5064 0.574033
rfingers 7.12502
rthumb 13.5689 -28.9638
lclavicle -2.52457e-014 2.38542e-015
lhumerus -22.3732 1.51229 80.0874
lradius 73.0146
lwrist 221.207
lhand -25.0202 17.2521
lfingers 7.12502
lthumb 1.4921 47.2266
rfemur -23.0138 9.10718 24.7012
rtibia 37.8589
rfoot -2.75391 0.132071
rtoes -8.9557
lfemur 8.21183 4.98772 -17.6689
ltibia 22.9949
lfoot -13.4127 -7.11086
ltoes 0.262209
2156
root 2.34999 17.4322 7.46284 173.393 28.5549 -175.67
lowerback 19.0908 -5.05163 -3.98581
upperback 9.3394 -6.02585 0.784278
thorax -0.0304004 -2.65024 4.15823
lowerneck -0.104891 4.51436 1.48287
upperneck -7.38469 6.81906 5.84308
head -2.49844 3.35085 1.45626
rclavicle -4.4329e-014 2.38542e-014
rhumerus -223.022 -168.167 108.571
rradius 91.0468
rwrist -171.352
rhand -12.5039 0.451891
rfingers 7.12502
rthumb 13.5714 -29.0858
lclavicle -4.4329e-014 2.38542e-014
lhumerus -22.3335 1.86219 80.1983
lradius 72.9985
lwrist 220.833
lhand -25.1315 17.3788
lfingers 7.12502
lthumb 1.38457 47.3541
rfemur -22.7219 8.35713 24.7998
rtibia 38.4327
rfoot -3.68829 -1.11534
rtoes -8.05742
lfemur 7.80984 5.15876 -17.7159
ltibia 23.2403
lfoot -13.2478 -6.90512
ltoes 0.028106
2157
root 2.31534 17.4377 7.5553 173.377 28.8888 -175.629
lowerback 19.0601 -5.02934 -3.95977
upperback 9.3977 -5.98792 0.715993
thorax 0.0331651 -2.62951 4.05997
lowerneck -0.0727637 4.65285 1.52167
upperneck -7.68612 7.04546 5.86018
head -2.61074 3.46002 1.44643
rclavicle 1.90833e-014 0
rhumerus -222.724 -168.335 108.195
rradius 91.4289
rwrist -171.213
rhand -12.534 0.348477
rfingers 7.12502
rthumb 13.5424 -29.1911
lclavicle 1.90833e-014 0
lhumerus -22.2997 2.16381 80.3003
lradius 72.9427
lwrist 220.516
lhand -25.1699 17.5294
lfingers 7.12502
lthumb 1.34745 47.5049
rfemur -22.406 7.38005 25.067
rtibia 39.0434
rfoot -4.64771 -2.22304
rtoes -7.9674
lfemur 7.35818 5.34933 -17.6436
ltibia 23.5427
lfoot -13.0981 -6.71351
ltoes -0.25641
2158
root 2.2819 17.4426 7.645 173.426 29.18 -175.541
lowerback 18.9803 -5.01622 -3.88658
upperback 9.41967 -5.96024 0.684505
thorax 0.081872 -2.61541 3.97396
lowerneck -0.0129559 4.77509 1.50462
upperneck -7.97599 7.25061 5.90702
head -2.728 3.55843 1.45531
rclavicle 9.93923e-014 -5.08889e-014
rhumerus -222.467 -168.493 107.847
rradius 91.7998
rwrist -171.085
rhand -12.602 0.203501
rfingers 7.12502
rthumb 13.4768 -29.3405
lclavicle 9.93923e-014 -5.08889e-014
lhumerus -22.3315 2.42225 80.4402
lradius 72.8128
lwrist 220.336
lhand -25.2279 17.7399
lfingers 7.12502
lthumb 1.29143 47.7158
rfemur -22.1003 6.43055 25.3523
rtibia 39.697
rfoot -5.59383 -3.36157
rtoes -7.57248
lfemur 6.85529 5.4733 -17.5392
ltibia 23.8781
lfoot -12.9508 -6.51475
ltoes -0.433127
2159
root 2.24999 17.4465 7.7333 173.465 29.4581 -175.424
lowerback 18.8947 -5.01268 -3.77829
upperback 9.46042 -5.93558 0.657601
thorax 0.150736 -2.60106 3.87255
lowerneck 0.0232389 4.8847 1.48471
upperneck -8.25167 7.43699 5.94993
head -2.83633 3.64836 1.4643
rclavicle 2.38542e-014 1.43125e-014
rhumerus -222.179 -168.671 107.46
rradius 92.2189
rwrist -170.822
rhand -12.6108 0.0761614
rfingers 7.12502
rthumb 13.4683 -29.4684
lclavicle 2.38542e-014 1.43125e-014
lhumerus -22.3972 2.63392 80.5736
lradius 72.7404
lwrist 220.156
lhand -25.233 17.8425
lfingers 7.12502
lthumb 1.28655 47.8183
rfemur -21.7483 5.59392 25.626
rtibia 40.3959
rfoot -6.54566 -4.49775
rtoes -7.23511
lfemur 6.37638 5.61048 -17.3946
ltibia 24.2304
lfoot -12.8513 -6.3587
ltoes -0.737949
2160
root 2.2189 17.4505 7.82006 173.441 29.7313 -175.364
lowerback 18.8182 -4.99851 -3.71341
upperback 9.49242 -5.90567 0.627149
thorax 0.209927 -2.58541 3.79182
lowerneck 0.112677 4.98172 1.41922
upperneck -8.54588 7.61054 6.01754
head -2.96445 3.73064 1.48763
rclavicle -4.51241e-014 4.13472e-014
rhumerus -221.966 -168.855 107.095
rradius 92.6967
rwrist -170.531
rhand -12.535 -0.0871952
rfingers 7.12502
rthumb 13.5414 -29.6269
lclavicle -4.51241e-014 4.13472e-014
lhumerus -22.4833 2.78597 80.7236
lradius 72.6029
lwrist 220.07
lhand -25.2288 17.9829
lfingers 7.12502
lthumb 1.29058 47.9588
rfemur -21.3485 4.92558 25.7936
rtibia 41.1462
rfoot -7.43241 -5.79995
rtoes -7.35778
lfemur 5.95948 5.7518 -17.3005
ltibia 24.5801
lfoot -12.7755 -6.19
ltoes -0.926223
2161
root 2.18777 17.4532 7.90613 173.406 29.9625 -175.326
lowerback 18.7345 -4.98838 -3.62478
upperback 9.5181 -5.87839 0.584492
thorax 0.262017 -2.56979 3.68537
lowerneck 0.183556 5.05199 1.3511
upperneck -8.81746 7.74912 6.11229
head -3.08297 3.79589 1.5218
rclavicle -1.07741e-013 3.89618e-014
rhumerus -221.788 -169.041 106.746
rradius 93.1816
rwrist -170.236
rhand -12.4237 -0.353975
rfingers 7.12502
rthumb 13.6486 -29.8865
lclavicle -1.07741e-013 3.89618e-014
lhumerus -22.589 2.8687 80.8686
lradius 72.5277
lwrist 220.032
lhand -25.1928 17.9559
lfingers 7.12502
lthumb 1.3254 47.9315
rfemur -20.8898 4.35198 25.8876
rtibia 41.9331
rfoot -8.29108 -7.10208
rtoes -8.03517
lfemur 5.53936 5.85991 -17.2318
ltibia 24.9284
lfoot -12.6946 -6.02524
ltoes -1.10363
